<?xml version="1.0" encoding="UTF-8" standalone="no"?>
<svg
   aria-hidden="true"
   width="47"
   height="47"
   viewBox="0 0 47 47"
   fill="none"
   version="1.1"
   id="svg4"
   sodipodi:docname="de.gruene.sherpa.Sherpa.svg"
   inkscape:version="1.2.2 (b0a8486541, 2022-12-01)"
   xmlns:inkscape="http://www.inkscape.org/namespaces/inkscape"
   xmlns:sodipodi="http://sodipodi.sourceforge.net/DTD/sodipodi-0.dtd"
   xmlns="http://www.w3.org/2000/svg"
   xmlns:svg="http://www.w3.org/2000/svg">
  <defs
     id="defs8" />
  <sodipodi:namedview
     id="namedview6"
     pagecolor="#ffffff"
     bordercolor="#000000"
     borderopacity="0.25"
     inkscape:showpageshadow="2"
     inkscape:pageopacity="0.0"
     inkscape:pagecheckerboard="0"
     inkscape:deskcolor="#d1d1d1"
     showgrid="false"
     inkscape:zoom="13.641551"
     inkscape:cx="26.463267"
     inkscape:cy="28.295903"
     inkscape:window-width="1803"
     inkscape:window-height="1133"
     inkscape:window-x="0"
     inkscape:window-y="0"
     inkscape:window-maximized="1"
     inkscape:current-layer="svg4" />
  <path
     d="m 33.233309,20.443999 c -0.6217,0.1012 -2.2236,0.135 -0.747,1.3715 0,0 0.2721,0.0211 -0.4576,0.439 -0.7254,0.4178 1.6234,0.671 1.8997,0.9748 0.2764,0.3081 -2.3272,-0.0295 -2.2754,0.7386 0.0519,0.7681 -0.449,0.2827 1.2824,2.089 0,0 -1.0406,-0.2363 -1.1615,-0.0928 -0.1209,0.1435 2.2754,2.089 2.2625,2.6419 0,0 -0.4879,0.3334 -0.6952,0.0422 -0.2072,-0.2912 -1.6579,-1.8569 -1.8911,-1.9034 -0.177,-0.0337 -0.5138,0.0465 -0.6735,0.3503 0,0 0.6347,1.4433 0.436,1.4813 -0.1986,0.0422 -1.1916,-0.6415 -1.1916,-0.6415 0,0 -0.652,0.2786 -0.4361,0.8568 0.2116,0.5739 1.9775,2.5363 1.8782,2.6545 0,0 -0.1511,0.3208 -0.38,0.2997 -0.2288,-0.0254 -1.4507,-2.1862 -1.7529,-2.2706 -0.3023,-0.0844 0.3497,2.0216 0.3497,2.0216 0,0 -1.101,-1.1353 -1.3989,-1.3716 -0.2936,-0.2364 -0.3368,0.2532 -0.3368,0.2532 l 0.3195,2.4013 c 0,0 -3.4368,-5.0052 -2.5949,0.9622 0,0 -0.0777,0.3377 -0.1943,0.3292 -0.1122,-0.0126 -0.8462,-1.9751 -0.7599,-2.511 0.0864,-0.536 -0.6045,1.4897 -0.6045,1.4897 0,0 -1.075,-4.1823 -3.3073,0.1055 0,0 -0.1554,-1.6206 -0.5008,-1.8991 -0.3411,-0.2785 -0.6261,-0.4262 -0.7124,-0.3756 -0.0864,0.0506 -0.8722,0.785 -1.183,0.8567 -0.3066,0.0718 0.2461,-0.9706 -0.2116,-1.2618 0,0 0.0432,-0.2912 -0.2245,-0.7091 -0.2677,-0.4178 -0.5225,-0.2616 -2.0595,1.359 0,0 0.6433,-1.5362 0.639,-2.068 -0.0043,-0.5317 -0.6045,-0.6499 -0.6045,-0.6499 0,0 -1.1183,0.8314 -1.4421,0.7301 -0.3281,-0.1013 0.5354,-1.1226 0.5527,-1.4011 0.0043,-0.0886 -0.1252,-0.0549 -0.1252,-0.0549 0,0 -0.1339,-0.0928 -1.2565,0.5487 l -1.822,1.131 c -0.1339,-0.0802 -0.3109,-0.0633 -0.2591,-0.4853 0.0173,-0.1224 3.4023,-1.6797 3.2512,-1.8443 -0.1511,-0.1604 -1.2823,-0.4347 -1.2823,-0.4347 0,0 0.7081,-0.8356 0.4965,-0.9284 -0.2116,-0.0887 -1.7573,-0.2153 -1.7573,-0.2153 0,0 -0.2677,-0.4136 -0.2115,-0.3334 0.0518,0.0844 1.5111,-0.2279 1.5111,-0.2279 l -0.9757,-0.747 c 0,0 2.4653,-0.422 0.2892,-1.705 -0.8074,-0.4726 -1.645,-0.7976 -2.556,-0.958 2.3229,0.114 3.8556,-0.4642 3.5966,-1.2914 0,0 -0.0734,-0.2996 -2.3877,-1.1268 0,0 0.0648,-0.2701 0.2202,-0.3081 0.1555,-0.0379 2.5604,0.8272 2.392,0.688 -0.1727,-0.1393 -1.0535,-1.0973 -0.8938,-1.0889 0.1598,0.0085 1.291,0.4727 1.6623,0.1309 0.3584,-0.3292 0.5829,-0.9327 0.8204,-1.0636 0.2375,-0.1308 -0.6304,-0.9158 0.5095,-0.5528 0,0 0.7728,-0.4263 0.164,-1.1184 -0.6087,-0.6963 -2.5387,-2.9289 0.6088,-0.2321 0.7513,0.6457 2.6381,-1.321 2.4827,-2.3887 0,0 0.7512,0.7428 0.911,0.823 0.1597,0.0802 1.2132,0.2025 1.455,-0.1562 0.1123,-0.1646 -0.3886,-1.6839 -0.0691,-2.3549 0,0 0.1339,-0.0127 0.2591,0.1308 0.1252,0.1435 0.1425,1.7304 0.7124,2.03 0,0 0.6433,-0.3672 0.7513,-0.6415 0.1079,-0.2743 -0.1727,1.7134 1.7529,0.8567 0,0 0.937,-0.8145 1.209,-0.8398 0.2677,-0.0253 -0.203,0.9664 0.0345,1.3209 0.2375,0.3545 1.0276,0.5909 1.278,0.1477 0.2505,-0.4431 1.4551,-1.3251 1.5501,-1.2871 0.0949,0.0379 -0.6131,1.878 -0.6909,2.0552 -0.1165,0.2617 -0.1986,0.6542 -0.1986,0.6542 0,0 0.0907,0.5149 0.7513,0.6541 0,0 1.2392,-0.709 2.5301,-1.629 -0.1338,0.1604 -0.272,0.325 -0.4102,0.5022 0,0 -1.6709,1.6755 -1.6709,1.9202 0.0043,0.2406 0.5743,0.785 1.0406,0.4769 0.4663,-0.3081 1.5975,-0.7638 1.6968,-0.6837 0.095,0.0802 0.2763,0.3039 0.0432,0.4389 -0.2332,0.1309 -1.5501,0.8019 -1.5501,0.8019 0,0 1.5026,0.1013 3.3376,-0.2617 -1.9861,0.7892 -2.677,1.9878 -2.6597,2.1017 0.0605,0.3841 3.1476,-0.3967 3.2296,-0.2068 0.449,0.9665 -0.9715,0.3588 -1.5932,0.4601 z m 13.0436,0.0759 c -0.0173,-0.1139 -0.3195,-0.2194 -0.5182,-0.384 -0.6821,-0.5571 -3.1173,-2.8994 -7.9142,-2.7474 -0.6088,0.0169 -1.1614,0.0759 -1.6623,0.1603 1.0233,-0.3249 1.5501,-0.519 1.8566,-0.6372 0.3713,-0.1435 2.8194,-0.9665 4.1363,-5.1656 0.1123,-0.3588 0.4318,-1.22391 0.3497,-1.29143 -0.0993,-0.08019 -0.9196,0.0633 -1.7529,0.55703 -0.8333,0.498 -3.6398,0.9285 -3.9722,0.9791 -0.1943,0.0296 -1.019,-0.0886 -2.2495,0.5402 1.3859,-1.3926 2.8582,-3.36774 3.2512,-6.14468 0.1899,-1.32939 0.1079,-1.8738 0.0518,-1.86958 -0.0821,0.00422 -0.1296,0.00844 -0.2289,0.03798 -0.3108,0.08863 -0.6217,0.34606 -1.6407,1.00865 -1.0189,0.6668 -2.1027,1.40535 -2.1027,1.40535 0,0 0.3714,-3.62522 0.2548,-3.70962 -0.1123,-0.08019 -2.2193,-0.06331 -5.4489,3.4564 0,0 0.367,-3.01328 -0.2374,-4.14853 0,0 -0.1684,-0.822953 -0.2979,-1.253422 -0.0648,-0.215234 -0.2375,-0.4431285 -0.2677,-0.4220271 -0.0346,0.0211013 -0.3195,0.0675241 -0.7772,0.5823981 -0.7124,0.797631 -4.0284,1.776731 -4.5767,5.967471 -0.4145,-1.69233 -1.2953,-3.9544 -3.4714,-5.09809 -1.2348,-1.177461 -1.7788,-1.5277441 -1.8436,-1.49820217 -0.0561,0.029542 -0.0302,0.54863617 -0.2159,1.72609217 -0.2116,1.32095 -0.3972,1.73453 -0.3972,1.73453 0,0 -2.2797,-1.9582 -2.3358,-2.01729 -0.108,-0.1055 -1.4983,4.19918 -1.0881,6.3473 0,0 -0.721,-0.54864 -2.0336,-1.207 -1.4895803,-0.74699 -3.9981203,-0.87782 -3.9808503,-0.76387 0.03022,0.19413 2.11564,4.17807 2.9921203,5.57494 0,0 -5.6172403,-0.9453 -5.5222503,-0.5992 0.03022,0.1139 0.16839,0.3291 0.38859,1.2449 0,0 -2.20631,-0.0464 -2.17609,0.1309 0.03022,0.1983 1.67092,2.8487 1.79613,2.9921 0,0 -1.70546,0.3208 -2.06814,0.3419 -0.24179,0.0253 1.14417,3.756 4.93505,4.6887 0.57425,0.1393 1.1269,0.2448 1.65797,0.3165 -1.24348,-0.0211 -2.6208,0.2322 -4.19674,0.8019 0,0 -0.91533,0.3461 -1.39891,0.7217 -0.48357,0.3756 -2.89281,0.7723 -3.009386,1.1141 0.056129,0.2532 2.940306,2.1819 2.940306,2.1819 0,0 -1.69251,0.8103 -1.80909,0.9622 -0.07771,0.1055 -0.14248,0.1984 -0.12089,0.2279 0.02159,0.0296 0.13385,0.1604 0.42744,0.3376 0.67787,0.4094 6.69233,1.0256 7.05933,0.8778 0.37132,-0.1434 -3.26845,3.8532 -3.32458,5.8662 0,0 0.59584,0.0422 0.93261,0.0676 0.25906,0.0211 -1.09668,2.5195 -0.85057,2.5068 1.63638,-0.0675 4.3435303,-1.6121 4.8530503,-1.9709 0.5094,-0.3545 1.2046,-0.882 1.3902,-1.055 0.19,-0.1731 -1.1873,2.2283 -0.6217,4.3384 0,0 0.177,1.6375 0.19,1.9709 0.0086,0.3292 0.4836,0.3292 0.4792,0.5528 -0.0043,0.2701 1.3255,-1.0255 1.9559,-1.5235 0.6304,-0.498 1.4853,-1.4602 1.8998,-2.0932 0.4145,-0.6331 0.0475,4.963 -0.1209,6.0392 -0.0561,0.346 0.0259,0.384 0.082,0.498 0.0173,0.0337 0.6045,-0.4389 0.7901,-0.5571 0.2764,-0.1815 3.1476,-3.9502 3.3289,-4.8955 0,0 1.5285,6.5709 2.0509,7.2757 0.1123,0.1519 0.2073,0.3208 0.285,0.2026 0.1511,-0.2321 0.3799,-0.8483 0.5526,-0.8989 0.2202,-0.0633 0.8679,-0.1435 1.2047,-1.0804 0.341,-0.9369 0.9498,-1.8527 1.2391,-4.2836 0,0 3.2512,4.0515 3.6743,4.4313 0.1684,0.1519 1.0535,-1.2872 1.4421,-3.5957 0.3929,-2.3085 -0.449,-5.4104 -0.9801,-5.5159 0,0 -0.2202,-0.3418 0.3972,-0.1266 0.3498,0.1224 1.7055,2.4182 4.8271,4.1654 0.5268,0.2912 1.6407,0.2997 1.6494,0.2786 0.2504,-0.6837 -2.1977,-6.9508 -2.1977,-6.9508 0,0 0.0604,-0.0718 0.5526,0.1266 0.4923,0.1983 5.1726,3.1567 8.0093,1.7683 0.5742,-0.2786 0.6087,-0.3377 0.6087,-0.3377 0.3239,-1.3673 -2.176,-3.9501 -3.7088,-5.1191 0,0 4.0327,-0.1604 4.6501,-1.207 0,0 0.7426,-0.2617 1.1269,-0.7808 0.0648,-0.0886 -0.4318,-0.9918 -1.0147,-1.3842 -1.5241,-1.034 -1.8522,-1.4223 -1.8522,-1.4223 0,0 0.4274,-0.5022 1.0405,-0.6921 0.6131,-0.1899 2.6036,-1.3843 2.0725,-1.9751 -0.013,0.0042 0.626,-0.5402 0.6045,-0.6837 z"
     fill="#ffe100"
     data-darkreader-inline-fill=""
     id="path2" />
</svg>
